<svg width="42px" height="30px" viewBox="0 0 189.35304 136.8965" version="1.1" id="svg1"
    xmlns="http://www.w3.org/2000/svg" xmlns:svg="http://www.w3.org/2000/svg">
    <defs id="defs1" />
    <g id="layer1" transform="translate(-14.552083,-109.80214)">
    <path style="fill:#eb0a06;fill-opacity:1;stroke-width:0.264583"
        d="m 89.634214,246.69863 -7.9375,-13.22918 13.22917,-33.07291 18.520836,-13.22916 7.9375,13.22916 -13.22917,33.07291 z"
        id="path8" />
    <path style="fill:#b81854;fill-opacity:1;stroke-width:0.264583"
        d="m 22.489583,246.06249 -7.9375,-13.22918 13.22917,-33.07291 18.520833,-13.22916 7.937497,13.22916 -13.229164,33.07291 z"
        id="path8-8" />
    <path style="fill:#f85d0b;fill-opacity:1;stroke-width:0.264583"
        d="m 114.12341,183.8855 -7.9375,-13.22918 13.22916,-33.07294 18.52083,-13.22916 7.93752,13.22919 -13.22917,33.07291 z"
        id="path8-2" />
    <path style="fill:#b81854;fill-opacity:1;stroke-width:0.264583"
        d="m 48.154186,185.20835 7.93749,13.22916 37.65879,1e-5 18.520834,-13.22917 -7.93749,-13.22914 -37.658804,-5e-5 z"
        id="path8-2-6-8" />
    <path style="fill:#f85d0b;fill-opacity:1;stroke-width:0.264583"
        d="m 115.29595,185.83972 7.93749,13.22916 37.6588,1e-5 18.52083,-13.22917 -7.9375,-13.22914 -37.65879,-5e-5 z"
        id="path8-2-6-8-4" />
    <path style="fill:#f85d0b;fill-opacity:1;stroke-width:0.264583"
        d="m 139.78801,123.03133 7.93749,13.22916 37.65879,1e-5 18.52083,-13.22917 -7.9375,-13.22914 -37.65879,-5e-5 z"
        id="path8-2-6-8-4-3" />
    </g>
</svg>